<?xml version="1.0" encoding="UTF-8"?>
<svg width="202px" height="198px" viewBox="0 0 202 198" version="1.1" xmlns="http://www.w3.org/2000/svg" xmlns:xlink="http://www.w3.org/1999/xlink">
    <!-- Generator: Sketch 63.1 (92452) - https://sketch.com -->
    <title>Artwork</title>
    <desc>Created with Sketch.</desc>
    <defs>
        <linearGradient x1="75.5183363%" y1="51.884701%" x2="61.3300197%" y2="42.9818956%" id="linearGradient-1">
            <stop stop-color="#FFFFFF" offset="0%"></stop>
            <stop stop-color="#DDDDDD" offset="100%"></stop>
        </linearGradient>
        <linearGradient x1="50%" y1="7.92741305%" x2="55.0585367%" y2="46.7894044%" id="linearGradient-2">
            <stop stop-color="#D4D4D4" offset="0%"></stop>
            <stop stop-color="#7B7B7B" offset="100%"></stop>
        </linearGradient>
        <polygon id="path-3" points="-7.78227221e-15 0.206613127 59.8554705 11.7967584 60.0485575 97.6183119 -7.78227221e-15 79.166754"></polygon>
        <linearGradient x1="83.2071011%" y1="46.9590479%" x2="100%" y2="68.6699389%" id="linearGradient-5">
            <stop stop-color="#4A3F22" offset="0%"></stop>
            <stop stop-color="#C4B799" stop-opacity="0" offset="100%"></stop>
        </linearGradient>
        <polygon id="path-6" points="-2.49032711e-13 0 35.6583171 15.567967 35.6583171 101.722046 -2.49032711e-13 77.4016962"></polygon>
        <linearGradient x1="76.4242087%" y1="33.4171184%" x2="45.4587262%" y2="90.8321507%" id="linearGradient-8">
            <stop stop-color="#4A3F22" offset="0%"></stop>
            <stop stop-color="#C4B799" stop-opacity="0" offset="100%"></stop>
        </linearGradient>
        <linearGradient x1="0%" y1="56.6896312%" x2="36.9503306%" y2="50%" id="linearGradient-9">
            <stop stop-color="#FFFFFF" offset="0%"></stop>
            <stop stop-color="#EFEFEF" offset="100%"></stop>
        </linearGradient>
        <path d="M25.66757,104.372553 C25.8873182,104.538074 26.0867883,104.728922 26.2618509,104.941147 C27.84364,106.858718 27.6409769,109.680465 25.8013896,111.352306 L23.8187662,113.154141 C21.8682561,114.92679 19.327168,115.908971 16.6914943,115.908971 C16.5646977,115.908971 16.4405994,115.897418 16.3201945,115.875308 C16.1668463,115.897382 16.0092833,115.908971 15.8490138,115.908971 C14.052126,115.908971 12.5954606,114.452305 12.5954606,112.655417 L12.5954606,110.880898 C12.5954606,109.084011 14.052126,107.627345 15.8490138,107.627345 C16.7373001,107.627345 17.5424431,107.983324 18.1295676,108.560405 L20.7652833,105.062563 C21.9284715,103.518293 24.1232999,103.209365 25.66757,104.372553 Z" id="path-10"></path>
        <filter x="-10.2%" y="-12.3%" width="120.4%" height="124.5%" filterUnits="objectBoundingBox" id="filter-11">
            <feOffset dx="0" dy="-3" in="SourceAlpha" result="shadowOffsetInner1"></feOffset>
            <feComposite in="shadowOffsetInner1" in2="SourceAlpha" operator="arithmetic" k2="-1" k3="1" result="shadowInnerInner1"></feComposite>
            <feColorMatrix values="0 0 0 0 0   0 0 0 0 0   0 0 0 0 0  0 0 0 0.0457710598 0" type="matrix" in="shadowInnerInner1"></feColorMatrix>
        </filter>
        <path d="M9.35427116,18.7586619 C20.6400671,-0.384990564 37.388393,-4.63879703 59.5992489,5.99724248 C66.1473382,8.98179256 72.5275513,14.8597963 78.7398881,23.6312537 L66.9756203,29.2064912 C64.8136958,29.3913422 63.2416708,29.3913422 62.2595454,29.2064912 C61.27742,29.0216403 59.7904434,28.4458897 57.7986157,27.4792393 L9.35427116,18.7586619 Z" id="path-12"></path>
        <filter x="-6.5%" y="-15.5%" width="113.0%" height="131.0%" filterUnits="objectBoundingBox" id="filter-13">
            <feOffset dx="9" dy="-3" in="SourceAlpha" result="shadowOffsetInner1"></feOffset>
            <feComposite in="shadowOffsetInner1" in2="SourceAlpha" operator="arithmetic" k2="-1" k3="1" result="shadowInnerInner1"></feComposite>
            <feColorMatrix values="0 0 0 0 0.647163723   0 0 0 0 0.647163723   0 0 0 0 0.647163723  0 0 0 0.212013134 0" type="matrix" in="shadowInnerInner1"></feColorMatrix>
        </filter>
        <path d="M11.8382381,109.432954 C1.39709037,58.0395446 1.39709037,26.7867417 11.8382381,15.674545 C27.4999598,-0.993750054 58.129312,15.674545 57.2272015,22.7728826 C59.7244493,29.8712203 53.6802947,74.9021085 53.1251957,83.2092225 C52.5700967,91.5163364 40.8781277,90.338507 40.8781277,95.6278135 C37.2126467,93.5972925 37.4450283,91.5667714 34.5423091,93.5972925 C31.6395899,95.6278135 35.1747255,84.3049553 41.3459685,81.133017 C41.9733851,75.2180732 31.8463546,59.9314936 30.4177557,40.8662225 C27.7287697,52.6480506 16.6286704,95.8200522 17.3051222,109.432954 C14.7221511,110.574615 12.8998564,110.574615 11.8382381,109.432954 Z" id="path-14"></path>
        <filter x="-5.6%" y="-2.9%" width="111.1%" height="105.9%" filterUnits="objectBoundingBox" id="filter-15">
            <feOffset dx="-6" dy="-1" in="SourceAlpha" result="shadowOffsetInner1"></feOffset>
            <feComposite in="shadowOffsetInner1" in2="SourceAlpha" operator="arithmetic" k2="-1" k3="1" result="shadowInnerInner1"></feComposite>
            <feColorMatrix values="0 0 0 0 0   0 0 0 0 0   0 0 0 0 0  0 0 0 0.0746999547 0" type="matrix" in="shadowInnerInner1"></feColorMatrix>
        </filter>
    </defs>
    <g id="1" stroke="none" stroke-width="1" fill="none" fill-rule="evenodd" opacity="0.330403646">
        <g id="3" transform="translate(-952.000000, -518.000000)">
            <g id="Artwork" transform="translate(952.000000, 518.000000)">
                <g id="person-and-box" transform="translate(33.000000, 37.000000)">
                    <ellipse id="shadow" fill="#EAEAEA" opacity="0.600000024" cx="9.03741475" cy="85.9761905" rx="7.83656725" ry="1.64285714"></ellipse>
                    <ellipse id="shadow" fill="#818181" opacity="0.600000024" cx="117.195456" cy="124.857143" rx="3.18309195" ry="1.64285714"></ellipse>
                    <ellipse id="shadow" fill="#818181" opacity="0.600000024" cx="131.706249" cy="123.214286" rx="7.83656725" ry="1.64285714"></ellipse>
                    <g id="box" transform="translate(15.986823, 0.000000)">
                        <polygon id="Rectangle-6" fill="url(#linearGradient-1)" opacity="0.5" points="30.8608607 84.0944393 81.2837106 84.0944393 159.907587 99.9404762 93.7978603 160.663354 0.681912272 98.9350179"></polygon>
                        <g id="Group" transform="translate(0.000000, 2.190476)">
                            <polygon id="Rectangle-38-Copy-2" fill="url(#linearGradient-2)" points="42.8022424 0.453442524 102.204262 10.9481097 102.467992 88.7133178 42.8022424 79.4135834"></polygon>
                            <polygon id="Rectangle-38-Copy-3" fill="#ADA590" transform="translate(25.262259, 47.646618) scale(-1, 1) translate(-25.262259, -47.646618) " points="7.43310068 0.42780902 43.0914178 15.567967 43.0914178 94.8654274 7.43310068 77.4016962"></polygon>
                            <g id="Rectangle-3" transform="translate(6.979650, 15.417046)">
                                <mask id="mask-4" fill="white">
                                    <use xlink:href="#path-3"></use>
                                </mask>
                                <use id="Mask" fill="#CDCDCD" xlink:href="#path-3"></use>
                                <polygon id="Mask-Copy-2" fill="url(#linearGradient-5)" style="mix-blend-mode: multiply;" opacity="0.133831522" mask="url(#mask-4)" points="-7.78227221e-15 0.206613127 59.8554705 4.93843881 60.0485575 39.9761905 -7.78227221e-15 32.443105"></polygon>
                                <rect fill="#EDEDED" opacity="0.366055254" mask="url(#mask-4)" x="24.0328783" y="4.08098271" width="7.25520855" height="85.7006369"></rect>
                            </g>
                            <g id="Rectangle-2" transform="translate(66.835121, 11.336063)">
                                <mask id="mask-7" fill="white">
                                    <use xlink:href="#path-6"></use>
                                </mask>
                                <use id="Mask" fill="#AAAAAA" transform="translate(17.829159, 50.861023) scale(-1, 1) translate(-17.829159, -50.861023) " xlink:href="#path-6"></use>
                                <path d="M7.39626728,77.7941216 L10.63031,81.8827877 L8.84880456,82.9431216 L8.84911761,90.0119899 L6.110974,91.6548471 L6.11080456,84.5751216 L4.19780456,85.716121 L7.39626728,77.7941216 Z" id="Combined-Shape" fill="#969696" mask="url(#mask-7)"></path>
                                <polygon fill="#FFFFFF" opacity="0.24830163" mask="url(#mask-7)" points="15.8707687 8.16196542 22.1605544 4.31282661 22.1605544 86.8393659 15.8707687 90.6885047"></polygon>
                                <polygon id="Mask-Copy" fill="url(#linearGradient-8)" style="mix-blend-mode: multiply;" opacity="0.133831522" mask="url(#mask-7)" transform="translate(17.829159, 24.525330) scale(-1, 1) translate(-17.829159, -24.525330) " points="-2.49032711e-13 0 35.6583171 6.93526981 35.6583171 49.0506594 -1.24516355e-13 30.2664771"></polygon>
                            </g>
                            <polygon id="Rectangle-39" fill="#D0D0D0" points="66.6992174 26.8826037 102.162459 10.8705008 127.435024 31.6342048 90.6788137 52.3979087"></polygon>
                            <polygon id="Rectangle" fill="url(#linearGradient-9)" points="7.43310068 15.4170458 66.9204579 26.9265674 62.2826548 59.832279 0.0566116701 45.8559311"></polygon>
                        </g>
                        <path d="M17.2009573,116.236231 C20.3766508,116.236231 26.9953012,112.502486 26.9953012,110.082953 C26.9953012,107.66342 27.0970392,105.773518 23.9213457,105.773518 C20.7456523,105.773518 12.0478319,110.93761 12.0478319,113.357143 C12.0478319,115.776676 14.0252639,116.236231 17.2009573,116.236231 Z" id="Oval" fill="#000000" opacity="0.391304348"></path>
                        <ellipse id="Oval-Copy" fill="#EAEAEA" opacity="0.699999988" cx="36.588444" cy="115.547619" rx="3.18309195" ry="1.64285714"></ellipse>
                        <g id="Combined-Shape">
                            <use fill="#9A9A9A" fill-rule="evenodd" xlink:href="#path-10"></use>
                            <use fill="black" fill-opacity="1" filter="url(#filter-11)" xlink:href="#path-10"></use>
                        </g>
                        <g id="Path-35">
                            <use fill="#E2E2E2" fill-rule="evenodd" xlink:href="#path-12"></use>
                            <use fill="black" fill-opacity="1" filter="url(#filter-13)" xlink:href="#path-12"></use>
                        </g>
                        <g id="Path-34">
                            <use fill="#BDBDBD" fill-rule="evenodd" xlink:href="#path-14"></use>
                            <use fill="black" fill-opacity="1" filter="url(#filter-15)" xlink:href="#path-14"></use>
                        </g>
                        <path d="M36.6903965,89.8095238 C38.5866428,89.8095238 40.1497885,91.2964636 40.2444842,93.190344 L40.8252532,104.80552 C40.9394362,107.089138 39.1807613,109.03294 36.897143,109.147123 C36.8282813,109.150567 36.7593443,109.152289 36.6903965,109.152289 C34.4039253,109.152289 32.5503742,107.298738 32.5503742,105.012267 C32.5503742,104.943319 32.5520966,104.874382 32.5555397,104.80552 L33.1363088,93.190344 C33.2310045,91.2964636 34.7941502,89.8095238 36.6903965,89.8095238 Z" id="Rectangle-38" fill="#9A9A9A"></path>
                        <path d="M14.1767345,21.7235125 C15.8214005,21.0461351 21.1765298,21.2161907 24.0112897,22.297138 C23.180011,26.8716433 21.9836409,30.6333749 21.6878417,32.5198428 C21.3920425,34.4063106 13.3127973,33.1529613 12.9570578,31.2634476 C12.6013183,29.3739339 12.976163,23.9187884 14.1767345,21.7235125 Z" id="Path-36" fill="#A7A7A7" transform="translate(18.419888, 27.387746) rotate(-3.000000) translate(-18.419888, -27.387746) "></path>
                        <path d="M35.6750677,24.4452068 C37.3198597,23.7677797 42.8605372,23.5394356 45.695519,24.6204737 C46.8277536,30.2921038 46.0185674,33.04284 45.7227492,34.9294552 C45.4269311,36.8160704 36.0486735,36.5723598 35.6929025,34.6826971 C35.3371315,32.7930345 34.4744078,26.6406524 35.6750677,24.4452068 Z" id="Path-36-Copy" fill="#A7A7A7" transform="translate(40.669580, 30.050701) scale(-1, 1) rotate(-10.000000) translate(-40.669580, -30.050701) "></path>
                        <path d="M43.4153397,81.4041839 C44.341584,81.4041839 47.5476039,81.1919107 50.0320644,82.7507068" id="Path-37" stroke="#8F8F8F" opacity="0.253453351"></path>
                    </g>
                    <g id="paper" transform="translate(113.464736, 107.880952)">
                        <path d="M0.81734863,7.49461021 C0.81734863,7.49461021 1.04903822,5.50707333 3.65018002,5.50707333 C4.39059459,5.50707333 6.09461395,5.86133788 8.76223811,6.56986699 C7.22732191,5.62926662 6.32388884,4.72471396 6.05193888,3.85620901 C5.07843447,0.747205369 6.38445106,-0.88735894 8.76223811,0.821981526 C13.8234552,4.46038273 15.5391544,0.217807809 17.4323397,3.85620901 C19.325525,7.49461021 26.7265054,13.8553714 24.491707,14.7256105 C22.2569087,15.5958497 17.1926859,16.4660889 15.027689,15.5958497 C12.8626921,14.7256105 11.0905507,10.5385388 8.76223811,12.6320747 C6.43392555,14.7256105 5.30486153,19.4789991 2.00323799,16.7327839 C-1.29838555,13.9865687 0.81734863,7.49461021 0.81734863,7.49461021 Z" id="Path-38" fill="#FFFFFF"></path>
                        <polygon id="Path-39" fill="#D8D8D8" opacity="0.498131793" points="14.0143262 13.2529113 11.1517467 8.44583801 17.5824878 13.2529113"></polygon>
                    </g>
                    <g id="paper" transform="translate(8.114487, 82.849518) scale(-1, 1) rotate(130.000000) translate(-8.114487, -82.849518) translate(1.614487, 77.849518)">
                        <path d="M0.426442764,3.91023141 C0.426442764,3.91023141 0.547324289,2.87325565 1.90444175,2.87325565 C2.290745,2.87325565 3.17979858,3.05808933 4.57160249,3.42775669 C3.77077665,2.93700867 3.29942026,2.46506815 3.15753333,2.01193513 C2.64961799,0.38984628 3.33101795,-0.462969882 4.57160249,0.428859927 C7.21223751,2.3271562 8.10738491,0.113638857 9.09513375,2.01193513 C10.0828826,3.91023141 13.9442637,7.22888942 12.7782819,7.68292724 C11.6123002,8.13696506 8.97009701,8.59100288 7.8405334,8.13696506 C6.7109698,7.68292724 5.78637426,5.49836808 4.57160249,6.59064766 C3.35683072,7.68292724 2.76775384,10.1629561 1.04516765,8.73014813 C-0.677418548,7.29734019 0.426442764,3.91023141 0.426442764,3.91023141 Z" id="Path-38" fill="#FFFFFF"></path>
                        <polygon id="Path-39" fill="#D8D8D8" opacity="0.498131793" points="7.31182235 6.91456243 5.8183026 4.40652418 9.17347187 6.91456243"></polygon>
                    </g>
                </g>
                <g id="marks" transform="translate(74.641733, 21.508462) scale(-1, 1) rotate(-26.000000) translate(-74.641733, -21.508462) translate(57.641733, 6.008462)" fill="#C1C1C1">
                    <rect id="Rectangle-34" x="0" y="0" width="4.38102978" height="12.066482" rx="2.19051489"></rect>
                    <path d="M18.7930601,7.09144222 C20.0043325,7.09237902 20.9860291,8.07407556 20.9869659,9.28534803 L20.9929,16.9580843 C20.9938349,18.1669373 20.0146238,19.1476642 18.8057708,19.1485992 C18.8046422,19.1486 18.8035137,19.1486 18.8023851,19.1485992 C17.5911126,19.1476624 16.6094161,18.1659658 16.6084793,16.9546933 L16.6025452,9.28195711 C16.6016102,8.07310407 17.5808213,7.09237715 18.7896744,7.09144222 C18.7908029,7.09144134 18.7919315,7.09144134 18.7930601,7.09144222 Z" id="Rectangle-34-Copy" transform="translate(18.797723, 13.120021) rotate(45.000000) translate(-18.797723, -13.120021) "></path>
                    <path d="M27.9290648,22.4968597 C29.1407256,22.4968597 30.1229707,23.4791048 30.1229707,24.6907655 L30.1229707,32.3507858 C30.1229707,33.5624465 29.1407256,34.5446916 27.9290648,34.5446916 C26.7174041,34.5446916 25.735159,33.5624465 25.735159,32.3507858 L25.735159,24.6907655 C25.735159,23.4791048 26.7174041,22.4968597 27.9290648,22.4968597 Z" id="Rectangle-34-Copy-2" transform="translate(27.929065, 28.520776) rotate(90.000000) translate(-27.929065, -28.520776) "></path>
                </g>
            </g>
        </g>
    </g>
</svg>