<?xml version="1.0" encoding="UTF-8"?>
<svg width="42px" height="42px" viewBox="0 0 42 42" version="1.1" xmlns="http://www.w3.org/2000/svg" xmlns:xlink="http://www.w3.org/1999/xlink">
    <!-- Generator: Sketch 63.1 (92452) - https://sketch.com -->
    <title>编组 13</title>
    <desc>Created with Sketch.</desc>
    <g id="1" stroke="none" stroke-width="1" fill="none" fill-rule="evenodd">
        <g transform="translate(-1720.000000, -499.000000)" id="编组-12">
            <g transform="translate(215.000000, 362.000000)">
                <g id="编组-10" transform="translate(30.000000, 100.000000)">
                    <g id="编组-17" transform="translate(1209.000000, 37.000000)">
                        <g id="编组-5">
                            <g id="编组-11">
                                <g id="编组-13" transform="translate(266.000000, 0.000000)">
                                    <circle id="椭圆形" fill="#EEEEEE" cx="21" cy="21" r="21"></circle>
                                    <g id="查看-(1)" transform="translate(21.500000, 20.500000) scale(1, -1) translate(-21.500000, -20.500000) translate(8.000000, 11.000000)" fill="#C1C1C1" fill-rule="nonzero">
                                        <g id="查看-(2)" transform="translate(13.500000, 9.500000) scale(1, -1) translate(-13.500000, -9.500000) ">
                                            <path d="M13.5,0 C3.78000001,0 0,9.5 0,9.5 C0,9.5 3.78000001,19 13.5,19 C23.22,19 27,9.5 27,9.5 C27,9.5 23.2057895,0 13.5,0 Z M13.5,15.0914286 C10.3655522,14.9233963 7.95037128,12.387386 8.07157894,9.39142857 C8.07157894,7.95168191 8.6704494,6.57090352 9.73644567,5.5528489 C10.8024419,4.53479427 12.2482431,3.96285715 13.7557895,3.96285715 C16.8617625,4.06610989 19.3050908,6.5325473 19.2410526,9.5 C19.2598504,11.0167025 18.652311,12.4794325 17.55,13.5714286 C16.4824629,14.5988546 15.0146943,15.1546392 13.5,15.105 L13.5,15.0914286 Z M16.3421053,9.48642856 C16.421136,10.6514463 15.7754082,11.7519138 14.6936842,12.2957143 C13.6329618,12.7726695 12.3744252,12.578635 11.5247368,11.8071429 C10.6506493,10.9705819 10.3724382,9.72179698 10.8142105,8.61785715 C11.2084034,7.52238585 12.2870983,6.78654147 13.5,6.78571429 C14.2504214,6.73201838 14.9878259,6.99486884 15.5178947,7.505 C16.0833836,8.02683992 16.3972151,8.74910969 16.3847368,9.5 L16.3421053,9.48642856 Z" id="形状"></path>
                                        </g>
                                    </g>
                                </g>
                            </g>
                        </g>
                    </g>
                </g>
            </g>
        </g>
    </g>
</svg>